<?xml version="1.0" encoding="UTF-8" standalone="no"?>
<!-- Created with Inkscape (http://www.inkscape.org/) -->

<svg
   xmlns:dc="http://purl.org/dc/elements/1.1/"
   xmlns:cc="http://creativecommons.org/ns#"
   xmlns:rdf="http://www.w3.org/1999/02/22-rdf-syntax-ns#"
   xmlns:svg="http://www.w3.org/2000/svg"
   xmlns="http://www.w3.org/2000/svg"
   xmlns:sodipodi="http://sodipodi.sourceforge.net/DTD/sodipodi-0.dtd"
   xmlns:inkscape="http://www.inkscape.org/namespaces/inkscape"
   width="640"
   height="640"
   id="svg2"
   version="1.1"
   inkscape:version="0.48.4 r9939"
   sodipodi:docname="book_section.svg"
   inkscape:export-filename="D:\Data\Annotations\anotationswithzotero\ZoteroSentience\src\main\res\drawable-xhdpi\ic_book_section.png"
   inkscape:export-xdpi="9"
   inkscape:export-ydpi="9">
  <defs
     id="defs4">
    <linearGradient
       id="linearGradient3937">
      <stop
         style="stop-color:#162d50;stop-opacity:1;"
         offset="0"
         id="stop3939" />
      <stop
         id="stop3947"
         offset="0.13788232"
         style="stop-color:#2e5da5;stop-opacity:1;" />
      <stop
         style="stop-color:#1c3865;stop-opacity:1;"
         offset="1"
         id="stop3941" />
    </linearGradient>
    <linearGradient
       id="linearGradient3929">
      <stop
         style="stop-color:#004455;stop-opacity:1;"
         offset="0"
         id="stop3931" />
      <stop
         id="stop3945"
         offset="0.5"
         style="stop-color:#005f76;stop-opacity:1;" />
      <stop
         style="stop-color:#007a98;stop-opacity:1;"
         offset="1"
         id="stop3933" />
    </linearGradient>
    <linearGradient
       id="linearGradient3921">
      <stop
         style="stop-color:#ffffff;stop-opacity:1;"
         offset="0"
         id="stop3923" />
      <stop
         style="stop-color:#ffffff;stop-opacity:0;"
         offset="1"
         id="stop3925" />
    </linearGradient>
    <linearGradient
       id="linearGradient3843">
      <stop
         id="stop3845"
         offset="0"
         style="stop-color:#333333;stop-opacity:1;" />
      <stop
         style="stop-color:#333333;stop-opacity:0.49803922;"
         offset="0.24394414"
         id="stop3849" />
      <stop
         id="stop3847"
         offset="1"
         style="stop-color:#333333;stop-opacity:1;" />
    </linearGradient>
    <linearGradient
       id="linearGradient3827">
      <stop
         style="stop-color:#989898;stop-opacity:1;"
         offset="0"
         id="stop3829" />
      <stop
         style="stop-color:#333333;stop-opacity:1;"
         offset="1"
         id="stop3831" />
    </linearGradient>
    <filter
       inkscape:collect="always"
       id="filter4907">
      <feGaussianBlur
         inkscape:collect="always"
         stdDeviation="14.542426"
         id="feGaussianBlur4909" />
    </filter>
  </defs>
  <sodipodi:namedview
     id="base"
     pagecolor="#ffffff"
     bordercolor="#666666"
     borderopacity="1.0"
     inkscape:pageopacity="0.0"
     inkscape:pageshadow="2"
     inkscape:zoom="0.22400922"
     inkscape:cx="-341.55103"
     inkscape:cy="-138.93248"
     inkscape:document-units="px"
     inkscape:current-layer="g3021"
     showgrid="false"
     inkscape:window-width="1280"
     inkscape:window-height="778"
     inkscape:window-x="0"
     inkscape:window-y="0"
     inkscape:window-maximized="1" />
  <metadata
     id="metadata7">
    <rdf:RDF>
      <cc:Work
         rdf:about="">
        <dc:format>image/svg+xml</dc:format>
        <dc:type
           rdf:resource="http://purl.org/dc/dcmitype/StillImage" />
        <dc:title></dc:title>
      </cc:Work>
    </rdf:RDF>
  </metadata>
  <g
     inkscape:label="Layer 1"
     inkscape:groupmode="layer"
     id="layer1"
     transform="translate(0,-412.36218)">
    <g
       id="g3782"
       transform="matrix(0.74564777,0,0,0.74564777,84.860813,186.34733)">
      <g
         id="g3021"
         inkscape:export-filename="D:\Data\Annotations\anotationswithzotero\ZoteroSentience\res\drawable-hdpi\ic_launcher.png"
         inkscape:export-xdpi="14.067696"
         inkscape:export-ydpi="14.067696">
        <path
           sodipodi:nodetypes="ccccccc"
           inkscape:connector-curvature="0"
           id="path4861"
           d="m -67.366228,343.78233 c 135.521791,-0.8695 269.794958,4.50406 394.190248,59.26707 97.75601,-28.26138 154.0919,-69.2674 389.95689,-55.03371 l 0,749.24801 -389.95689,55.0337 -394.190248,-59.267 z"
           style="fill:#000000;fill-opacity:1;fill-rule:evenodd;stroke:#000000;stroke-width:7.65654993;stroke-linecap:butt;stroke-linejoin:miter;stroke-miterlimit:4;stroke-opacity:1;filter:url(#filter4907)" />
        <path
           style="fill:#d5f6ff;fill-opacity:1;fill-rule:evenodd;stroke:#000000;stroke-width:7.65654992999999970;stroke-linecap:butt;stroke-linejoin:miter;stroke-miterlimit:4;stroke-opacity:1"
           d="m -78.095156,330.37118 c 135.521791,-0.8695 269.794966,4.50406 394.190256,59.26707 97.75601,-28.26138 154.0919,-69.2674 389.95689,-55.03371 l 0,749.24816 -389.95689,55.0337 -394.190256,-59.267 z"
           id="rect2985"
           inkscape:connector-curvature="0"
           sodipodi:nodetypes="ccccccc" />
        <rect
           ry="0"
           y="306.97644"
           x="-80.951584"
           height="802.55969"
           width="802.56012"
           id="rect3019"
           style="fill:none;stroke:none" />
        <rect
           style="fill:#cccccc"
           id="rect2990"
           width="463.61588"
           height="32.813786"
           x="1375.3765"
           y="520.36682"
           ry="10.63464" />
        <rect
           ry="5.832665"
           y="581.49237"
           x="1394.4266"
           height="17.997019"
           width="408.58215"
           id="rect3949"
           style="fill:#cccccc" />
        <rect
           ry="5.832665"
           y="636.7843"
           x="1379.6099"
           height="17.997019"
           width="463.61588"
           id="rect3951"
           style="fill:#cccccc" />
        <rect
           style="fill:#cccccc"
           id="rect3953"
           width="463.61588"
           height="17.997019"
           x="1379.6099"
           y="668.97131"
           ry="5.832665" />
        <rect
           ry="5.832665"
           y="701.15833"
           x="1379.6099"
           height="17.997019"
           width="463.61588"
           id="rect3955"
           style="fill:#cccccc" />
        <rect
           style="fill:#cccccc"
           id="rect3957"
           width="463.61588"
           height="17.997019"
           x="1379.6099"
           y="733.34534"
           ry="5.832665" />
        <path
           sodipodi:nodetypes="ccccccc"
           inkscape:connector-curvature="0"
           id="path4581"
           d="m -44.297275,309.13461 c 135.547446,-0.83827 235.972735,24.74898 360.391575,77.54533 97.77451,-27.24645 132.95025,-83.10519 368.85989,-69.38266 l 0,722.34112 c -130.01023,-21.3382 -238.84965,3.8414 -368.85989,69.3826 -127.0176,-44.5165 -222.191989,-97.6989 -360.391575,-77.5452 z"
           style="fill:#ffffff;fill-opacity:1;fill-rule:evenodd;stroke:#4d4d4d;stroke-width:7.51852322;stroke-linecap:butt;stroke-linejoin:miter;stroke-miterlimit:4;stroke-opacity:1" />
        <path
           style="fill:none;stroke:#333333;stroke-width:3.99999998000000010;stroke-linecap:butt;stroke-linejoin:miter;stroke-opacity:1;stroke-miterlimit:4;stroke-dasharray:none"
           d="m 318.81627,84.438973 0,508.212077"
           id="path4071"
           inkscape:connector-curvature="0"
           transform="matrix(1.3411158,0,0,1.3411158,-113.80818,303.11208)"
           sodipodi:nodetypes="cc" />
        <rect
           ry="10.63464"
           y="335.91544"
           x="-22.462954"
           height="32.813786"
           width="311.51984"
           id="rect4703"
           style="fill:#cccccc"
           transform="matrix(0.96304842,0.2693283,0,1,0,0)" />
        <rect
           style="fill:#cccccc"
           id="rect4705"
           width="274.54077"
           height="17.997019"
           x="-9.6624708"
           y="397.04099"
           ry="5.832665"
           transform="matrix(0.96304842,0.2693283,0,1,0,0)" />
        <rect
           style="fill:#cccccc"
           id="rect4707"
           width="311.51984"
           height="17.997019"
           x="-19.618383"
           y="452.33292"
           ry="5.832665"
           transform="matrix(0.96304842,0.2693283,0,1,0,0)" />
        <rect
           ry="5.832665"
           y="484.51993"
           x="-19.618383"
           height="17.997019"
           width="311.51984"
           id="rect4709"
           style="fill:#cccccc"
           transform="matrix(0.96304842,0.2693283,0,1,0,0)" />
        <rect
           style="fill:#cccccc"
           id="rect4711"
           width="311.51984"
           height="17.997019"
           x="-19.618383"
           y="516.70697"
           ry="5.832665"
           transform="matrix(0.96304842,0.2693283,0,1,0,0)" />
        <rect
           ry="5.832665"
           y="548.89398"
           x="-19.618383"
           height="17.997019"
           width="311.51984"
           id="rect4713"
           style="fill:#cccccc"
           transform="matrix(0.96304842,0.2693283,0,1,0,0)" />
        <rect
           style="fill:#cccccc"
           id="rect4715"
           width="142.26942"
           height="17.997019"
           x="-19.618383"
           y="613.26801"
           ry="5.832665"
           transform="matrix(0.96304842,0.2693283,0,1,0,0)" />
        <rect
           ry="5.832665"
           y="613.26801"
           x="147.99403"
           height="17.997019"
           width="142.26942"
           id="rect4717"
           style="fill:#cccccc"
           transform="matrix(0.96304842,0.2693283,0,1,0,0)" />
        <rect
           ry="5.832665"
           y="642.77277"
           x="-19.618383"
           height="17.997019"
           width="142.26942"
           id="rect4719"
           style="fill:#cccccc"
           transform="matrix(0.96304842,0.2693283,0,1,0,0)" />
        <rect
           style="fill:#cccccc"
           id="rect4721"
           width="142.26942"
           height="17.997019"
           x="147.99403"
           y="642.77277"
           ry="5.832665"
           transform="matrix(0.96304842,0.2693283,0,1,0,0)" />
        <rect
           style="fill:#cccccc"
           id="rect4723"
           width="142.26942"
           height="17.997019"
           x="-19.618383"
           y="672.27753"
           ry="5.832665"
           transform="matrix(0.96304842,0.2693283,0,1,0,0)" />
        <rect
           ry="5.832665"
           y="672.27753"
           x="147.99403"
           height="17.997019"
           width="142.26942"
           id="rect4725"
           style="fill:#cccccc"
           transform="matrix(0.96304842,0.2693283,0,1,0,0)" />
        <rect
           ry="5.832665"
           y="701.78229"
           x="-19.618383"
           height="17.997019"
           width="142.26942"
           id="rect4727"
           style="fill:#cccccc"
           transform="matrix(0.96304842,0.2693283,0,1,0,0)" />
        <rect
           style="fill:#cccccc"
           id="rect4729"
           width="142.26942"
           height="17.997019"
           x="147.99403"
           y="701.78229"
           ry="5.832665"
           transform="matrix(0.96304842,0.2693283,0,1,0,0)" />
        <rect
           ry="5.832665"
           y="728.6048"
           x="-19.618383"
           height="17.997019"
           width="142.26942"
           id="rect4731"
           style="fill:#cccccc"
           transform="matrix(0.96304842,0.2693283,0,1,0,0)" />
        <rect
           style="fill:#cccccc"
           id="rect4733"
           width="142.26942"
           height="17.997019"
           x="147.99403"
           y="728.6048"
           ry="5.832665"
           transform="matrix(0.96304842,0.2693283,0,1,0,0)" />
        <rect
           style="fill:#cccccc"
           id="rect4735"
           width="142.26942"
           height="17.997019"
           x="-19.618383"
           y="758.10956"
           ry="5.832665"
           transform="matrix(0.96304842,0.2693283,0,1,0,0)" />
        <rect
           ry="5.832665"
           y="758.10956"
           x="147.99403"
           height="17.997019"
           width="142.26942"
           id="rect4737"
           style="fill:#cccccc"
           transform="matrix(0.96304842,0.2693283,0,1,0,0)" />
        <rect
           ry="5.832665"
           y="787.61432"
           x="-19.618383"
           height="17.997019"
           width="142.26942"
           id="rect4739"
           style="fill:#cccccc"
           transform="matrix(0.96304842,0.2693283,0,1,0,0)" />
        <rect
           style="fill:#cccccc"
           id="rect4741"
           width="142.26942"
           height="17.997019"
           x="147.99403"
           y="787.61432"
           ry="5.832665"
           transform="matrix(0.96304842,0.2693283,0,1,0,0)" />
        <rect
           style="fill:#cccccc"
           id="rect4743"
           width="142.26942"
           height="17.997019"
           x="-19.618383"
           y="817.11902"
           ry="5.832665"
           transform="matrix(0.96304842,0.2693283,0,1,0,0)" />
        <rect
           ry="5.832665"
           y="817.11902"
           x="147.99403"
           height="17.997019"
           width="142.26942"
           id="rect4745"
           style="fill:#cccccc"
           transform="matrix(0.96304842,0.2693283,0,1,0,0)" />
        <rect
           style="fill:#cccccc"
           id="rect4747"
           width="142.26942"
           height="17.997019"
           x="-19.618383"
           y="846.62384"
           ry="5.832665"
           transform="matrix(0.96304842,0.2693283,0,1,0,0)" />
        <rect
           ry="5.832665"
           y="846.62384"
           x="147.99403"
           height="17.997019"
           width="142.26942"
           id="rect4749"
           style="fill:#cccccc"
           transform="matrix(0.96304842,0.2693283,0,1,0,0)" />
        <rect
           ry="5.832665"
           y="876.1286"
           x="-19.618383"
           height="17.997019"
           width="142.26942"
           id="rect4751"
           style="fill:#cccccc"
           transform="matrix(0.96304842,0.2693283,0,1,0,0)" />
        <rect
           style="fill:#cccccc"
           id="rect4753"
           width="142.26942"
           height="17.997019"
           x="147.99403"
           y="876.1286"
           ry="5.832665"
           transform="matrix(0.96304842,0.2693283,0,1,0,0)" />
        <rect
           style="fill:#cccccc"
           id="rect4755"
           width="142.26942"
           height="17.997019"
           x="-19.618383"
           y="905.63336"
           ry="5.832665"
           transform="matrix(0.96304842,0.2693283,0,1,0,0)" />
        <rect
           ry="5.832665"
           y="905.63336"
           x="147.99403"
           height="17.997019"
           width="142.26942"
           id="rect4757"
           style="fill:#cccccc"
           transform="matrix(0.96304842,0.2693283,0,1,0,0)" />
        <rect
           ry="5.832665"
           y="935.13812"
           x="-19.618383"
           height="17.997019"
           width="142.26942"
           id="rect4759"
           style="fill:#cccccc"
           transform="matrix(0.96304842,0.2693283,0,1,0,0)" />
        <rect
           style="fill:#cccccc"
           id="rect4761"
           width="142.26942"
           height="17.997019"
           x="147.99403"
           y="935.13812"
           ry="5.832665"
           transform="matrix(0.96304842,0.2693283,0,1,0,0)" />
        <g
           id="g4811"
           transform="matrix(0.64200143,-0.20721334,0,0.86821577,-539.04188,42.221184)">
          <rect
             style="fill:#cccccc"
             id="rect3959"
             width="211.73085"
             height="17.997019"
             x="1379.6099"
             y="797.71936"
             ry="5.832665" />
          <rect
             ry="5.832665"
             y="797.71936"
             x="1629.0571"
             height="17.997019"
             width="211.73085"
             id="rect3961"
             style="fill:#cccccc" />
          <rect
             ry="5.832665"
             y="827.22412"
             x="1379.6099"
             height="17.997019"
             width="211.73085"
             id="rect3963"
             style="fill:#cccccc" />
          <rect
             style="fill:#cccccc"
             id="rect3965"
             width="211.73085"
             height="17.997019"
             x="1629.0571"
             y="827.22412"
             ry="5.832665" />
          <rect
             style="fill:#cccccc"
             id="rect3967"
             width="211.73085"
             height="17.997019"
             x="1379.6099"
             y="856.72888"
             ry="5.832665" />
          <rect
             ry="5.832665"
             y="856.72888"
             x="1629.0571"
             height="17.997019"
             width="211.73085"
             id="rect3969"
             style="fill:#cccccc" />
          <rect
             ry="5.832665"
             y="886.23364"
             x="1379.6099"
             height="17.997019"
             width="211.73085"
             id="rect3971"
             style="fill:#cccccc" />
          <rect
             style="fill:#cccccc"
             id="rect3973"
             width="211.73085"
             height="17.997019"
             x="1629.0571"
             y="886.23364"
             ry="5.832665" />
          <rect
             ry="5.832665"
             y="913.05615"
             x="1379.6099"
             height="17.997019"
             width="211.73085"
             id="rect3975"
             style="fill:#cccccc" />
          <rect
             style="fill:#cccccc"
             id="rect3977"
             width="211.73085"
             height="17.997019"
             x="1629.0571"
             y="913.05615"
             ry="5.832665" />
          <rect
             style="fill:#cccccc"
             id="rect3979"
             width="211.73085"
             height="17.997019"
             x="1379.6099"
             y="942.56091"
             ry="5.832665" />
          <rect
             ry="5.832665"
             y="942.56091"
             x="1629.0571"
             height="17.997019"
             width="211.73085"
             id="rect3981"
             style="fill:#cccccc" />
          <rect
             ry="5.832665"
             y="972.06567"
             x="1379.6099"
             height="17.997019"
             width="211.73085"
             id="rect3983"
             style="fill:#cccccc" />
          <rect
             style="fill:#cccccc"
             id="rect3985"
             width="211.73085"
             height="17.997019"
             x="1629.0571"
             y="972.06567"
             ry="5.832665" />
          <rect
             style="fill:#cccccc"
             id="rect3987"
             width="211.73085"
             height="17.997019"
             x="1379.6099"
             y="1001.5704"
             ry="5.832665" />
          <rect
             ry="5.832665"
             y="1001.5704"
             x="1629.0571"
             height="17.997019"
             width="211.73085"
             id="rect3989"
             style="fill:#cccccc" />
          <rect
             style="fill:#cccccc"
             id="rect3991"
             width="211.73085"
             height="17.997019"
             x="1379.6099"
             y="1031.0752"
             ry="5.832665" />
          <rect
             ry="5.832665"
             y="1031.0752"
             x="1629.0571"
             height="17.997019"
             width="211.73085"
             id="rect3993"
             style="fill:#cccccc" />
          <rect
             ry="5.832665"
             y="1060.58"
             x="1379.6099"
             height="17.997019"
             width="211.73085"
             id="rect3995"
             style="fill:#cccccc" />
          <rect
             style="fill:#cccccc"
             id="rect3997"
             width="211.73085"
             height="17.997019"
             x="1629.0571"
             y="1060.58"
             ry="5.832665" />
          <rect
             style="fill:#cccccc"
             id="rect3999"
             width="211.73085"
             height="17.997019"
             x="1379.6099"
             y="1090.0847"
             ry="5.832665" />
          <rect
             ry="5.832665"
             y="1090.0847"
             x="1629.0571"
             height="17.997019"
             width="211.73085"
             id="rect4001"
             style="fill:#cccccc" />
          <rect
             ry="5.832665"
             y="1119.5895"
             x="1379.6099"
             height="17.997019"
             width="211.73085"
             id="rect4003"
             style="fill:#cccccc" />
          <rect
             style="fill:#cccccc"
             id="rect4005"
             width="211.73085"
             height="17.997019"
             x="1629.0571"
             y="1119.5895"
             ry="5.832665" />
          <rect
             ry="5.832665"
             y="1153.3218"
             x="1379.6099"
             height="17.997019"
             width="211.73085"
             id="rect4763"
             style="fill:#cccccc" />
          <rect
             style="fill:#cccccc"
             id="rect4765"
             width="211.73085"
             height="17.997019"
             x="1629.0571"
             y="1153.3218"
             ry="5.832665" />
          <rect
             style="fill:#cccccc"
             id="rect4767"
             width="211.73085"
             height="17.997019"
             x="1379.6099"
             y="1182.8265"
             ry="5.832665" />
          <rect
             ry="5.832665"
             y="1182.8265"
             x="1629.0571"
             height="17.997019"
             width="211.73085"
             id="rect4769"
             style="fill:#cccccc" />
          <rect
             ry="5.832665"
             y="1212.3313"
             x="1379.6099"
             height="17.997019"
             width="211.73085"
             id="rect4771"
             style="fill:#cccccc" />
          <rect
             style="fill:#cccccc"
             id="rect4773"
             width="211.73085"
             height="17.997019"
             x="1629.0571"
             y="1212.3313"
             ry="5.832665" />
          <rect
             style="fill:#cccccc"
             id="rect4775"
             width="211.73085"
             height="17.997019"
             x="1379.6099"
             y="1241.8361"
             ry="5.832665" />
          <rect
             ry="5.832665"
             y="1241.8361"
             x="1629.0571"
             height="17.997019"
             width="211.73085"
             id="rect4777"
             style="fill:#cccccc" />
          <rect
             style="fill:#cccccc"
             id="rect4779"
             width="211.73085"
             height="17.997019"
             x="1379.6099"
             y="1268.6586"
             ry="5.832665" />
          <rect
             ry="5.832665"
             y="1268.6586"
             x="1629.0571"
             height="17.997019"
             width="211.73085"
             id="rect4781"
             style="fill:#cccccc" />
          <rect
             ry="5.832665"
             y="1298.1633"
             x="1379.6099"
             height="17.997019"
             width="211.73085"
             id="rect4783"
             style="fill:#cccccc" />
          <rect
             style="fill:#cccccc"
             id="rect4785"
             width="211.73085"
             height="17.997019"
             x="1629.0571"
             y="1298.1633"
             ry="5.832665" />
          <rect
             style="fill:#cccccc"
             id="rect4787"
             width="211.73085"
             height="17.997019"
             x="1379.6099"
             y="1327.6681"
             ry="5.832665" />
          <rect
             ry="5.832665"
             y="1327.6681"
             x="1629.0571"
             height="17.997019"
             width="211.73085"
             id="rect4789"
             style="fill:#cccccc" />
          <rect
             ry="5.832665"
             y="1357.1727"
             x="1379.6099"
             height="17.997019"
             width="211.73085"
             id="rect4791"
             style="fill:#cccccc" />
          <rect
             style="fill:#cccccc"
             id="rect4793"
             width="211.73085"
             height="17.997019"
             x="1629.0571"
             y="1357.1727"
             ry="5.832665" />
          <rect
             ry="5.832665"
             y="1386.6776"
             x="1379.6099"
             height="17.997019"
             width="211.73085"
             id="rect4795"
             style="fill:#cccccc" />
          <rect
             style="fill:#cccccc"
             id="rect4797"
             width="211.73085"
             height="17.997019"
             x="1629.0571"
             y="1386.6776"
             ry="5.832665" />
          <rect
             style="fill:#cccccc"
             id="rect4799"
             width="211.73085"
             height="17.997019"
             x="1379.6099"
             y="1416.1824"
             ry="5.832665" />
          <rect
             ry="5.832665"
             y="1416.1824"
             x="1629.0571"
             height="17.997019"
             width="211.73085"
             id="rect4801"
             style="fill:#cccccc" />
          <rect
             ry="5.832665"
             y="1445.6871"
             x="1379.6099"
             height="17.997019"
             width="211.73085"
             id="rect4803"
             style="fill:#cccccc" />
          <rect
             style="fill:#cccccc"
             id="rect4805"
             width="211.73085"
             height="17.997019"
             x="1629.0571"
             y="1445.6871"
             ry="5.832665" />
          <rect
             style="fill:#cccccc"
             id="rect4807"
             width="211.73085"
             height="17.997019"
             x="1379.6099"
             y="1475.1919"
             ry="5.832665" />
          <rect
             ry="5.832665"
             y="1475.1919"
             x="1629.0571"
             height="17.997019"
             width="211.73085"
             id="rect4809"
             style="fill:#cccccc" />
        </g>
      </g>
    </g>
  </g>
</svg>
