<?xml version="1.0" encoding="UTF-8" standalone="no"?>
<!-- Created with Inkscape (http://www.inkscape.org/) -->

<svg
   xmlns:dc="http://purl.org/dc/elements/1.1/"
   xmlns:cc="http://creativecommons.org/ns#"
   xmlns:rdf="http://www.w3.org/1999/02/22-rdf-syntax-ns#"
   xmlns:svg="http://www.w3.org/2000/svg"
   xmlns="http://www.w3.org/2000/svg"
   xmlns:sodipodi="http://sodipodi.sourceforge.net/DTD/sodipodi-0.dtd"
   xmlns:inkscape="http://www.inkscape.org/namespaces/inkscape"
   width="32"
   height="32"
   id="svg2"
   version="1.1"
   inkscape:version="0.48.4 r9939"
   sodipodi:docname="strike_text.svg"
   inkscape:export-filename="D:\Data\Annotations\anotationswithzotero\ZoteroSentience\src\main\res\drawable-mdpi\ic_italic_text.png"
   inkscape:export-xdpi="90"
   inkscape:export-ydpi="90">
  <defs
     id="defs4" />
  <sodipodi:namedview
     id="base"
     pagecolor="#ffffff"
     bordercolor="#666666"
     borderopacity="1.0"
     inkscape:pageopacity="0.0"
     inkscape:pageshadow="2"
     inkscape:zoom="12.396466"
     inkscape:cx="23.044528"
     inkscape:cy="7.6238701"
     inkscape:document-units="px"
     inkscape:current-layer="layer1"
     showgrid="false"
     showguides="true"
     inkscape:guide-bbox="true"
     inkscape:window-width="1216"
     inkscape:window-height="778"
     inkscape:window-x="-8"
     inkscape:window-y="-8"
     inkscape:window-maximized="1">
    <sodipodi:guide
       orientation="1,0"
       position="3.9928699,28.00713"
       id="guide2985" />
    <sodipodi:guide
       orientation="1,0"
       position="28.00713,3.9928699"
       id="guide2987" />
    <sodipodi:guide
       orientation="0,1"
       position="3.9928699,3.9928699"
       id="guide2989" />
    <sodipodi:guide
       orientation="0,1"
       position="28.00713,28.00713"
       id="guide2991" />
  </sodipodi:namedview>
  <metadata
     id="metadata7">
    <rdf:RDF>
      <cc:Work
         rdf:about="">
        <dc:format>image/svg+xml</dc:format>
        <dc:type
           rdf:resource="http://purl.org/dc/dcmitype/StillImage" />
        <dc:title />
      </cc:Work>
    </rdf:RDF>
  </metadata>
  <g
     inkscape:label="Layer 1"
     inkscape:groupmode="layer"
     id="layer1"
     transform="translate(0,-1020.3622)">
    <path
       style="font-size:40.27308272999999900px;font-style:normal;font-variant:normal;font-weight:normal;font-stretch:normal;text-align:start;line-height:125%;letter-spacing:0px;word-spacing:0px;writing-mode:lr-tb;text-anchor:start;opacity:0.80000000000000004;fill:#ffffff;fill-opacity:1;stroke:none;font-family:Baskerville Old Face;-inkscape-font-specification:Baskerville Old Face"
       d="M 15.40625 4.15625 C 13.501042 4.2748186 11.816216 4.8328423 10.375 5.78125 C 9.4426669 6.3895919 8.7080449 7.117121 8.1875 7.96875 C 7.6669467 8.8204178 7.4062466 9.7070062 7.40625 10.625 C 7.406247 11.944784 7.9511327 13.06903 9 14.03125 L 19.03125 14.03125 L 16.03125 13 C 12.690401 11.871857 10.999993 10.37835 11 8.53125 C 10.999993 8.0667333 11.134142 7.6208057 11.375 7.15625 C 11.615844 6.6917347 11.955445 6.2803928 12.375 5.9375 C 13.385012 5.0969334 14.759644 4.6875227 16.5 4.6875 C 17.696473 4.6875227 18.739446 4.8977582 19.65625 5.3125 C 20.573022 5.7272859 21.426082 6.3560614 22.1875 7.21875 C 22.607029 7.694366 22.946975 8.19147 23.25 8.75 C 23.552987 9.3085672 23.924183 10.136781 24.34375 11.1875 L 24.875 11.1875 L 24.71875 4.59375 L 24.1875 4.59375 C 24.001014 5.1578516 23.637588 5.4375219 23.09375 5.4375 C 22.876188 5.4375219 22.62343 5.404604 22.34375 5.34375 C 22.064034 5.28294 21.526922 5.1587298 20.75 4.9375 C 19.708885 4.6278321 18.871537 4.4175966 18.25 4.3125 C 17.628435 4.2074496 16.94906 4.1562732 16.21875 4.15625 C 15.937108 4.1562529 15.678423 4.1393116 15.40625 4.15625 z M 4 15 L 4 18 L 10.09375 18 L 10.09375 17.96875 L 26.6875 17.96875 L 26.6875 18 L 28 18 L 28 15 L 23.6875 15 L 23.6875 15.03125 L 7.0625 15.03125 L 7.0625 15 L 4 15 z M 19.46875 18.96875 C 19.802231 19.188868 20.105686 19.397129 20.34375 19.625 C 20.778819 20.045302 21.149843 20.538807 21.40625 21.125 C 21.662622 21.711206 21.781232 22.279676 21.78125 22.84375 C 21.781232 24.148878 21.196642 25.242103 20.03125 26.09375 C 18.865826 26.9454 17.380698 27.375 15.59375 27.375 C 13.02984 27.375 10.912472 26.451895 9.21875 24.59375 C 8.3174957 23.587259 7.5276258 22.185045 6.875 20.4375 L 6.34375 20.4375 L 6.28125 27.3125 L 6.8125 27.3125 C 7.0921952 26.781602 7.5978843 26.500001 8.34375 26.5 C 8.5768273 26.500001 8.7822797 26.518259 8.96875 26.5625 C 9.1552103 26.606742 9.7553391 26.79512 10.71875 27.09375 C 12.567858 27.657829 14.495485 27.937499 16.5 27.9375 C 18.690955 27.937499 20.571449 27.577334 22.1875 26.875 C 23.803515 26.172667 25.035712 25.169067 25.84375 23.875 C 26.418663 22.945933 26.687477 21.98631 26.6875 20.96875 C 26.68749 20.264289 26.554542 19.594135 26.28125 18.96875 L 19.46875 18.96875 z "
       transform="translate(0,1020.3622)"
       id="text2993" />
  </g>
</svg>
