<?xml version="1.0" encoding="UTF-8" standalone="no"?>
<!-- Created with Inkscape (http://www.inkscape.org/) -->

<svg
   xmlns:dc="http://purl.org/dc/elements/1.1/"
   xmlns:cc="http://creativecommons.org/ns#"
   xmlns:rdf="http://www.w3.org/1999/02/22-rdf-syntax-ns#"
   xmlns:svg="http://www.w3.org/2000/svg"
   xmlns="http://www.w3.org/2000/svg"
   xmlns:sodipodi="http://sodipodi.sourceforge.net/DTD/sodipodi-0.dtd"
   xmlns:inkscape="http://www.inkscape.org/namespaces/inkscape"
   width="640"
   height="640"
   id="svg2"
   version="1.1"
   inkscape:version="0.48.4 r9939"
   sodipodi:docname="strike_text.svg"
   inkscape:export-filename="D:\Data\Annotations\anotationswithzotero\ZoteroSentience\res\drawable-mdpi\ic_underline_text.png"
   inkscape:export-xdpi="4.5"
   inkscape:export-ydpi="4.5">
  <defs
     id="defs4">
    <linearGradient
       id="linearGradient5876">
      <stop
         style="stop-color:#ffd42a;stop-opacity:1;"
         offset="0"
         id="stop5878" />
      <stop
         style="stop-color:#dcbf4d;stop-opacity:1;"
         offset="1"
         id="stop5880" />
    </linearGradient>
    <linearGradient
       id="linearGradient3937">
      <stop
         style="stop-color:#162d50;stop-opacity:1;"
         offset="0"
         id="stop3939" />
      <stop
         id="stop3947"
         offset="0.13788232"
         style="stop-color:#2e5da5;stop-opacity:1;" />
      <stop
         style="stop-color:#1c3865;stop-opacity:1;"
         offset="1"
         id="stop3941" />
    </linearGradient>
    <linearGradient
       id="linearGradient3929">
      <stop
         style="stop-color:#004455;stop-opacity:1;"
         offset="0"
         id="stop3931" />
      <stop
         id="stop3945"
         offset="0.5"
         style="stop-color:#005f76;stop-opacity:1;" />
      <stop
         style="stop-color:#007a98;stop-opacity:1;"
         offset="1"
         id="stop3933" />
    </linearGradient>
    <linearGradient
       id="linearGradient3921">
      <stop
         style="stop-color:#ffffff;stop-opacity:1;"
         offset="0"
         id="stop3923" />
      <stop
         style="stop-color:#ffffff;stop-opacity:0;"
         offset="1"
         id="stop3925" />
    </linearGradient>
    <linearGradient
       id="linearGradient3843">
      <stop
         id="stop3845"
         offset="0"
         style="stop-color:#333333;stop-opacity:1;" />
      <stop
         style="stop-color:#333333;stop-opacity:0.49803922;"
         offset="0.24394414"
         id="stop3849" />
      <stop
         id="stop3847"
         offset="1"
         style="stop-color:#333333;stop-opacity:1;" />
    </linearGradient>
    <linearGradient
       id="linearGradient3827">
      <stop
         style="stop-color:#989898;stop-opacity:1;"
         offset="0"
         id="stop3829" />
      <stop
         style="stop-color:#333333;stop-opacity:1;"
         offset="1"
         id="stop3831" />
    </linearGradient>
  </defs>
  <sodipodi:namedview
     id="base"
     pagecolor="#ffffff"
     bordercolor="#666666"
     borderopacity="1.0"
     inkscape:pageopacity="0.0"
     inkscape:pageshadow="2"
     inkscape:zoom="0.44801844"
     inkscape:cx="197.05647"
     inkscape:cy="204.50436"
     inkscape:document-units="px"
     inkscape:current-layer="g3021"
     showgrid="false"
     inkscape:window-width="1218"
     inkscape:window-height="778"
     inkscape:window-x="-8"
     inkscape:window-y="-8"
     inkscape:window-maximized="1"
     showguides="true"
     inkscape:guide-bbox="true" />
  <metadata
     id="metadata7">
    <rdf:RDF>
      <cc:Work
         rdf:about="">
        <dc:format>image/svg+xml</dc:format>
        <dc:type
           rdf:resource="http://purl.org/dc/dcmitype/StillImage" />
        <dc:title></dc:title>
      </cc:Work>
    </rdf:RDF>
  </metadata>
  <g
     inkscape:label="Layer 1"
     inkscape:groupmode="layer"
     id="layer1"
     transform="translate(0,-412.36218)">
    <g
       id="g3782"
       transform="matrix(0.74564777,0,0,0.74564777,84.860813,186.34733)">
      <g
         id="g3021"
         inkscape:export-filename="D:\Data\Annotations\anotationswithzotero\ZoteroSentience\res\drawable-hdpi\ic_launcher.png"
         inkscape:export-xdpi="14.067696"
         inkscape:export-ydpi="14.067696">
        <path
           style="font-size:1031.19628906px;font-style:normal;font-variant:normal;font-weight:normal;font-stretch:normal;text-align:start;line-height:125%;letter-spacing:0px;word-spacing:0px;writing-mode:lr-tb;text-anchor:start;fill:#ffffff;fill-opacity:1;stroke:#000000;stroke-width:0.72718805;font-family:Siemens Slab;-inkscape-font-specification:Siemens Slab"
           d="M 327.0625 59.15625 C 269.13913 59.15674 223.20755 70.420856 189.28125 92.90625 C 154.25145 116.30108 136.74995 149.68106 136.75 193.0625 C 136.74995 213.27741 140.88146 231.00136 149.15625 246.21875 C 159.49844 264.87399 177.67434 280.80721 203.625 294.03125 L 64.71875 294.03125 L 64.71875 343.125 L 341.8125 343.125 C 348.47839 345.40168 354.95884 347.62568 361 349.78125 C 378.65249 355.91395 393.68133 363.0735 406.09375 371.25 C 424.84949 383.51519 434.2184 401.12251 434.21875 424.0625 C 434.2184 449.95542 422.89854 470.3845 400.28125 485.375 C 375.73256 501.50128 345.41403 509.56254 309.28125 509.5625 C 273.14803 509.56254 238.66674 503.10271 205.84375 490.15625 L 199.21875 426.09375 L 139.21875 426.09375 L 139.21875 526.25 C 194.10776 545.78319 248.8553 555.56249 303.46875 555.5625 C 361.66749 555.56249 409.38834 543.86315 446.625 520.46875 C 485.24006 496.39302 504.56208 461.9947 504.5625 417.25 C 504.56208 395.89993 499.58553 376.92441 489.65625 360.34375 C 485.93602 354.3596 481.22818 348.6176 475.5 343.125 L 558 343.125 L 558 294.03125 L 379.25 294.03125 C 364.70111 289.01653 347.28805 283.21575 326.65625 276.53125 C 305.14171 269.4905 285.98136 262.79743 269.15625 256.4375 C 252.33078 250.07816 238.53826 242.45213 227.78125 233.59375 C 213.98989 222.23758 207.09363 206.23167 207.09375 185.5625 C 207.09363 156.94451 219.06562 136.16557 243.0625 123.21875 C 265.1283 111.1813 292.58291 105.15669 325.40625 105.15625 C 355.7467 105.15669 385.96606 111.06468 416.03125 122.875 L 421.8125 188.625 L 481.8125 188.625 L 481.8125 84.03125 C 425.81975 67.451239 374.22824 59.15674 327.0625 59.15625 z "
           transform="matrix(1.3411158,0,0,1.3411158,-113.80818,303.11208)"
           id="text3026" />
      </g>
    </g>
  </g>
</svg>
